<svg xmlns="http://www.w3.org/2000/svg" viewBox="0 0 50 50"><path d="M45.3 20.7l-5.9-1.8v-4.4c0-.2-.1-.5-.4-.6L23.2 6.1s-.1-.1-.3-.1c-.2 0-.3.1-.3.1l-11.3 8.1c-.2.1-.3.3-.3.5v5.6L8.9 20h-.4l-3.8 1.7c-.2.1-.4.3-.4.6v10.9c0 .2.1.5.3.6l3.8 2.1s.1.1.2.1h.2l2.1-.3v1.2c0 .2.1.5.3.6l11.3 6.2s.1.1.3.1h.3l15.9-6 6.3-2.4c.3-.1.4-.3.4-.6V21.4c.1-.3-.1-.6-.4-.7zm-39.2 10c0 .1 0 .1-.1.2h-.1-.1l-.7-.2c-.1 0-.2-.1-.2-.2v-2c0-.1 0-.1.1-.2 0 0 .1-.1.2-.1l.7.1c.1 0 .2.1.2.2v2.2zm0-4.3c0 .1-.1.2-.2.2l-.7.1c-.1 0-.1 0-.1-.1 0 0-.1-.1-.1-.2v-2c0-.1.1-.2.2-.2l.6-.2H6c.1 0 .1.1.1.2v2.2zm2.1 4.9c0 .1 0 .1-.1.2H8h-.1l-1-.3c-.1 0-.2-.1-.2-.2v-2.4c0-.1 0-.1.1-.2 0 0 .1-.1.2-.1l1 .1c.1 0 .2.1.2.2v2.7zm0-5.1c0 .1-.1.2-.2.2l-1 .1c-.1 0-.1 0-.1-.1 0 0-.1-.1-.1-.2v-2.4c0-.1.1-.2.2-.2l1-.3h.2c.1 0 .1.1.1.2v2.7zm5.4 6.6c0 .1 0 .1-.1.2h-.1-.1l-1.3-.4c-.1 0-.2-.1-.2-.2v-3.3c0-.1 0-.1.1-.2 0 0 .1-.1.2-.1l1.3.1c.1 0 .2.1.2.2v3.7zm0-7c0 .1-.1.2-.2.2l-1.3.1c-.1 0-.1 0-.1-.1 0 0-.1-.1-.1-.2v-3.3c0-.1.1-.2.2-.2l1.3-.3h.2c.1 0 .1.1.1.2l-.1 3.6zm0-7.1c0 .1-.1.2-.1.2l-1.3.6h-.1-.1c-.1 0-.1-.1-.1-.2V16c0-.1 0-.1.1-.2l1.3-.8h.2c.1 0 .1.1.1.2v3.5zm3.2 15c0 .1 0 .1-.1.2h-.1-.1l-1.7-.5c-.1 0-.2-.1-.2-.2v-3.8c0-.1 0-.1.1-.2 0 0 .1-.1.2-.1l1.7.2c.1 0 .2.1.2.2v4.2zm0-8.2c0 .1-.1.2-.2.2l-1.7.1c-.1 0-.1 0-.1-.1 0 0-.1-.1-.1-.2v-3.8c0-.1.1-.2.2-.2l1.7-.5h.2c.1 0 .1.1.1.2l-.1 4.3zm0-8.2c0 .1-.1.2-.1.2l-1.7.8h-.1-.1c-.1 0-.1-.1-.1-.2v-3.8c0-.1 0-.1.1-.2l1.7-1.1h.2c.1 0 .1.1.1.2v4.1zM21.3 35c0 .1 0 .1-.1.2s-.2.1-.2.1c-.4 0-2.1-.6-2.4-.7-.1 0-.1-.1-.1-.2v-4.5c0-.1 0-.1.1-.2 0 0 .1-.1.2-.1l2.4.2c.1 0 .2.1.2.2-.1.1-.1 4.7-.1 5zm0-9.9c0 .1-.1.2-.2.2l-2.4.2c-.1 0-.1 0-.1-.1 0 0-.1-.1-.1-.2v-4.5c0-.1.1-.2.2-.2L21 20h.2c.1 0 .1.1.1.2v4.9zm0-9.8c0 .1-.1.2-.1.2l-2.4 1.1h-.1-.1c-.1 0-.1-.1-.1-.2v-4.5c0-.1 0-.1.1-.2l2.4-1.5h.2c.1 0 .1.1.1.2v4.9zm9.6-2.4c0-.1 0-.1.1-.2h.2l2.6 1.1c.1 0 .1.1.1.2v3.9c0 .1 0 .1-.1.2h-.1-.1l-2.6-.8c-.1 0-.2-.1-.2-.2l.1-4.2zm0 8.4c0-.1 0-.1.1-.2 0 0 .1-.1.2 0l2.6.5c.1 0 .2.1.2.2v3.9c0 .1 0 .1-.1.2l-.1.1-2.6-.2c-.1 0-.2-.1-.2-.2l-.1-4.3zM24.2 10c0-.1 0-.1.1-.2h.2l3.7 1.6c.1 0 .1.1.1.2v4.6c0 .1 0 .1-.1.2h-.1-.1l-3.7-1.1c-.1 0-.2-.1-.2-.2V10h.1zm0 15.1v-5c0-.1 0-.1.1-.2 0 0 .1-.1.2 0l3.7.7c.1 0 .2.1.2.2v4.6c0 .1 0 .1-.1.2l-.1.1-3.7-.2c-.2-.2-.3-.3-.3-.4zm7.2 15c0 .1-.1.2-.1.2l-4.8 1.8h-.1-.1c-.1 0-.1-.1-.1-.2V30c0-.1.1-.2.2-.2l4.8-.3c.1 0 .1 0 .2.1 0 0 .1.1.1.2l-.1 10.3zm5.8-2.2c0 .1-.1.2-.1.2l-3.2 1.2h-.1-.1c-.1 0-.1-.1-.1-.2v-9.7c0-.1.1-.2.2-.2L37 29c.1 0 .1 0 .2.1 0 0 .1.1.1.2v8.6zm.9-12c0 .1 0 .1-.1.2l-.1.1L36 26c-.1 0-.2-.1-.2-.2v-3.6c0-.1 0-.1.1-.2.1 0 .1-.1.2 0l1.9.4c.1 0 .2.1.2.2l-.1 3.3zm0-6.7c0 .1 0 .1-.1.2h-.1-.1l-1.9-.6c-.1 0-.2-.1-.2-.2V15c0-.1 0-.1.1-.2h.2l1.9.8c.1 0 .1.1.1.2l.1 3.4zM42 31.8c0 .1-.1.2-.2.2l-1.4.3c-.1 0-.1 0-.1-.1-.1 0-.1-.1-.1-.2v-3c0-.1.1-.2.2-.2l1.4-.1c.1 0 .1 0 .2.1 0 0 .1.1.1.2l-.1 2.8zm0-5.7c0 .1 0 .1-.1.2l-.1.1-1.4-.1c-.1 0-.2-.1-.2-.2v-3c0-.1 0-.1.1-.2 0 0 .1-.1.2 0l1.4.3c.1 0 .2.1.2.2l-.1 2.7zm2.3 5.3c0 .1-.1.2-.2.2l-1.1.2c-.1 0-.1 0-.1-.1-.1 0-.1-.1-.1-.2v-2.7c0-.1.1-.2.2-.2l1.1-.1c.1 0 .1 0 .2.1 0 0 .1.1.1.2l-.1 2.6zm0-5.2c0 .1 0 .1-.1.2l-.1.1-1.1-.1c-.1 0-.2-.1-.2-.2v-2.7c0-.1 0-.1.1-.2 0 0 .1-.1.2-.1l1.1.2c.1 0 .2.1.2.2l-.1 2.6z"/></svg>