<svg xmlns="http://www.w3.org/2000/svg" viewBox="0 0 50 50"><path d="M12.2 19.3c-2.5 0-4.6-2.1-4.6-4.6s2.1-4.6 4.6-4.6 4.6 2.1 4.6 4.6-2 4.6-4.6 4.6zM37.8 19.3c-2.5 0-4.6-2.1-4.6-4.6s2.1-4.6 4.6-4.6 4.6 2.1 4.6 4.6-2.1 4.6-4.6 4.6zM25 16.8c-3.2 0-5.8-2.6-5.8-5.8s2.6-5.8 5.8-5.8 5.8 2.6 5.8 5.8-2.6 5.8-5.8 5.8zM26.2 17v8c0 .6-.5 1.2-1.2 1.2s-1.2-.5-1.2-1.2v-8c-3.9.6-6.9 3.9-6.9 8v6.9c0 .6.5 1.2 1.2 1.2h2.6l.9 10.6c0 .6.6 1.1 1.1 1.1h4.6c.6 0 1.1-.5 1.1-1.1l.9-10.7h2.6c.6 0 1.2-.5 1.2-1.2v-6.9c0-4-3-7.4-6.9-7.9zM14.5 32v-6.9c0-1.7.5-3.3 1.2-4.8-1-.6-2.2-1-3.5-1-3.8 0-6.9 3.1-6.9 6.9V32c0 .6.5 1.2 1.2 1.2h1.3l1.1 10.5c.1.6.6 1 1.1 1h4.6c.6 0 1.1-.4 1.1-1l.9-8.5c-1.2-.6-2.1-1.8-2.1-3.2z"/><path d="M44.7 26.2c0-3.8-3.1-6.9-6.9-6.9-1.3 0-2.5.4-3.5 1 .8 1.4 1.2 3 1.2 4.8V32c0 1.4-.8 2.6-2 3.1l.9 8.5c.1.6.6 1 1.1 1h4.6c.6 0 1.1-.4 1.1-1l1.1-10.5h1.3c.6 0 1.2-.5 1.2-1.2v-5.7z"/></svg>