<?xml version="1.0" standalone="no"?>
<!DOCTYPE svg PUBLIC "-//W3C//DTD SVG 20010904//EN"
 "http://www.w3.org/TR/2001/REC-SVG-20010904/DTD/svg10.dtd">
<svg version="1.0" xmlns="http://www.w3.org/2000/svg"
 width="250.000000pt" height="250.000000pt" viewBox="0 0 250.000000 250.000000"
 preserveAspectRatio="xMidYMid meet">
<metadata>
Created by potrace 1.14, written by Peter Selinger 2001-2017
</metadata>
<g transform="translate(0.000000,250.000000) scale(0.100000,-0.100000)"
fill="#000000" stroke="none">
<path d="M1245 2454 c-27 -19 -45 -34 -40 -35 6 0 0 -4 -13 -9 -12 -5 -29 -7
-38 -3 -19 7 -64 -34 -64 -59 0 -11 -11 -23 -27 -29 -124 -47 -271 -151 -350
-248 -82 -101 -107 -167 -153 -406 -6 -33 -16 -78 -21 -100 -18 -77 -16 -128
7 -180 39 -88 39 -134 -1 -227 -11 -27 6 -22 42 13 35 32 42 25 19 -19 -15
-28 -76 -91 -76 -79 0 4 -11 1 -23 -8 -22 -14 -59 -19 -114 -16 -12 0 -35 12
-50 25 l-28 24 -1 549 c0 330 3 550 9 554 13 9 -1 86 -19 104 -12 12 -20 12
-57 -1 -30 -11 -62 -14 -115 -10 -72 6 -73 5 -83 -21 -5 -14 -7 -38 -4 -52 11
-54 16 -1130 6 -1150 -6 -11 -20 -23 -31 -26 -19 -6 -20 -15 -20 -262 l0 -256
64 5 c71 6 90 -1 110 -40 12 -22 12 -33 2 -57 -7 -17 -20 -36 -29 -44 -10 -7
-17 -20 -17 -27 0 -8 -4 -14 -9 -14 -5 0 -11 -15 -13 -34 -4 -34 -3 -35 49
-51 29 -9 53 -21 53 -26 0 -6 9 -5 21 2 12 6 19 7 15 1 -12 -19 -111 -79 -178
-107 l-68 -28 0 -54 0 -53 1250 0 1251 0 -3 76 -3 76 -115 38 c-119 39 -277
100 -307 120 -16 10 -16 11 -1 6 21 -6 61 45 52 67 -6 18 40 53 76 58 14 2 25
11 25 19 0 32 -96 -4 -154 -58 -25 -23 -50 -42 -54 -42 -5 0 -5 -9 -2 -20 3
-11 4 -20 2 -20 -19 0 -96 35 -113 51 -25 24 -22 49 6 49 26 0 30 11 21 53 -8
35 -7 36 23 43 17 4 36 14 43 23 12 14 12 14 7 -1 -5 -14 -1 -18 19 -18 41 0
77 -18 77 -38 0 -15 7 -19 30 -18 16 1 30 4 30 9 0 4 14 20 30 35 19 16 32 39
34 57 3 25 7 29 27 27 36 -5 117 -5 184 -1 l60 4 3 106 3 106 -63 7 c-82 9
-141 24 -153 40 -5 7 -19 17 -29 23 -16 9 -20 23 -21 72 -1 34 -6 66 -11 71
-5 5 -36 6 -73 2 -60 -7 -65 -9 -74 -37 -6 -16 -14 -33 -20 -36 -5 -4 -6 -12
-3 -18 4 -6 2 -11 -4 -11 -52 0 -97 87 -71 138 5 9 22 46 38 82 27 63 28 71
28 230 0 210 -2 217 -112 470 -25 56 -63 172 -63 190 0 10 -8 28 -18 41 -11
13 -22 37 -26 54 -9 34 -89 151 -125 180 -34 28 -103 65 -121 65 -8 0 -21 13
-28 28 -7 17 -28 35 -52 46 -22 10 -40 22 -40 28 0 6 -9 8 -20 5 -11 -3 -23
-1 -26 4 -3 5 -31 9 -62 8 -47 -1 -65 -7 -107 -35z m-999 -276 c12 -20 4 -111
-12 -129 -20 -22 -81 -31 -105 -16 -38 24 -32 140 9 150 35 9 101 7 108 -5z
m-9 -260 c19 -18 23 -32 23 -79 0 -67 -23 -99 -71 -99 -28 0 -78 18 -80 29
-15 90 -2 145 40 160 42 15 63 13 88 -11z m1397 6 c5 -14 4 -15 -9 -4 -17 14
-19 20 -6 20 5 0 12 -7 15 -16z m-528 -21 c-10 -10 -19 5 -10 18 6 11 8 11 12
0 2 -7 1 -15 -2 -18z m124 -19 c0 -8 5 -14 11 -14 6 0 8 9 4 23 -4 16 -3 18 3
7 11 -17 10 -49 -2 -68 -10 -17 20 -44 49 -44 29 0 23 -15 -12 -29 -31 -11
-26 -31 11 -40 24 -7 27 -5 23 11 -4 16 -2 18 13 10 22 -12 33 -1 18 18 -7 8
-13 20 -14 28 -3 16 12 19 21 4 3 -5 1 -10 -6 -10 -28 0 8 -16 44 -19 4 -1 7
-9 5 -18 -2 -14 4 -18 25 -17 15 1 27 -3 27 -7 0 -5 -10 -9 -22 -10 -22 0 -22
-1 2 -10 17 -7 26 -7 28 1 7 21 22 -2 16 -26 -4 -14 -2 -24 5 -24 6 0 11 9 11
20 0 11 7 20 15 20 8 0 15 -5 15 -11 0 -5 5 -7 11 -4 7 5 5 15 -5 31 -14 20
-14 23 -1 18 8 -4 15 -10 15 -15 0 -16 60 -40 77 -31 10 6 12 12 5 16 -6 4 -9
13 -5 21 3 8 0 15 -6 15 -6 0 -11 5 -11 10 0 6 7 10 16 10 12 0 15 6 10 24 -3
14 -1 28 4 31 6 4 8 11 4 16 -3 6 -3 17 0 26 5 13 9 13 22 2 12 -10 17 -10 23
-1 18 29 55 -49 66 -140 4 -26 10 -50 16 -53 5 -4 9 -15 9 -26 0 -13 -4 -18
-12 -13 -8 5 -9 2 -4 -12 11 -30 17 -109 17 -239 0 -138 -1 -158 -11 -165 -4
-3 -10 -54 -13 -115 -3 -60 -11 -126 -17 -145 -13 -38 -16 -50 -20 -65 -1 -5
-7 -19 -13 -30 -6 -11 -10 -25 -9 -31 1 -6 -5 -17 -13 -24 -12 -10 -15 -9 -15
6 0 16 -2 17 -10 4 -8 -11 -9 4 -5 50 4 47 3 59 -4 42 -6 -12 -8 -28 -5 -36 6
-14 -22 -30 -37 -20 -5 3 -9 -1 -9 -9 0 -19 -27 -30 -33 -14 -4 12 23 80 34
85 4 2 5 12 2 23 -4 13 -1 19 8 17 18 -4 22 108 4 126 -13 13 -30 56 -27 69 1
4 -3 7 -9 7 -6 0 -9 -6 -6 -14 4 -9 -11 -4 -38 12 -46 28 -56 42 -30 42 8 0
15 5 15 10 0 6 -9 10 -20 10 -24 0 -27 15 -4 24 8 3 12 11 8 17 -4 8 -3 9 4 5
7 -4 12 -15 12 -24 0 -14 4 -13 18 6 10 13 21 19 26 15 4 -4 19 -8 32 -8 18
-1 24 5 24 20 1 28 22 52 43 49 9 -1 17 4 17 12 0 8 6 14 13 14 8 0 7 4 -3 10
-13 8 -12 10 3 10 9 0 17 5 17 10 0 6 -5 10 -12 10 -9 0 -9 3 -1 11 20 20 -29
83 -106 138 -24 17 -49 27 -55 24 -6 -4 -19 -6 -29 -4 -10 1 -50 -3 -88 -9
-52 -9 -73 -9 -83 0 -11 8 -16 8 -21 0 -5 -8 -11 -8 -17 -2 -6 6 -17 8 -24 5
-8 -3 -14 0 -14 6 0 6 -3 11 -8 11 -4 0 -7 -18 -7 -41 0 -31 7 -46 26 -63 15
-13 29 -40 36 -71 18 -80 31 -105 47 -99 10 4 17 -3 22 -20 3 -14 12 -26 20
-26 16 0 18 -9 4 -30 -8 -12 -12 -12 -18 -2 -7 9 -13 8 -27 -8 -14 -16 -16
-23 -7 -32 9 -9 12 -9 12 2 0 9 9 5 25 -10 32 -30 33 -60 1 -60 -13 0 -44 -16
-69 -35 -47 -36 -68 -45 -48 -22 16 20 -20 51 -48 42 -16 -5 -21 -2 -21 12 0
13 -3 14 -8 5 -7 -10 -12 -8 -26 7 -14 16 -22 17 -46 8 -16 -6 -32 -8 -36 -4
-12 11 5 37 31 47 14 5 30 21 35 35 7 17 17 25 34 25 23 0 25 3 19 33 -12 65
-15 157 -5 157 22 0 35 121 13 128 -9 3 -11 0 -5 -9 6 -12 5 -12 -8 -1 -13 10
-17 10 -21 0 -3 -9 -9 -8 -19 6 -12 15 -23 18 -56 13 -47 -8 -73 -1 -66 18 3
7 -4 15 -16 18 -17 4 -20 2 -14 -15 4 -15 2 -19 -13 -17 -24 3 -73 -11 -101
-29 -12 -8 -36 -16 -52 -18 l-29 -4 21 41 c21 40 74 83 90 73 4 -3 8 4 8 15 0
12 7 21 15 21 8 0 15 3 15 8 0 16 71 83 82 76 6 -4 17 1 24 11 13 17 15 17 33
1 16 -15 19 -15 24 -1 4 8 12 15 18 15 8 0 6 -7 -4 -18 -17 -18 -23 -42 -11
-42 3 0 14 4 24 10 14 7 23 6 35 -6 13 -13 18 -14 32 -3 14 12 13 14 -6 19
-12 3 -22 8 -22 13 1 4 1 17 1 30 1 20 2 20 11 4 5 -9 7 -22 4 -27 -4 -6 5 -5
19 2 27 11 37 32 12 22 -7 -3 -16 1 -19 9 -4 11 0 13 14 10 22 -6 26 12 4 21
-8 3 -15 13 -15 22 0 13 -3 14 -15 4 -8 -7 -15 -18 -15 -26 0 -7 -4 -15 -9
-18 -4 -3 -8 13 -8 35 0 23 5 43 12 45 7 3 16 19 19 36 5 26 8 29 21 18 8 -7
15 -19 15 -26z m70 16 c0 -5 -5 -10 -11 -10 -5 0 -7 5 -4 10 3 6 8 10 11 10 2
0 4 -4 4 -10z m-260 -10 c0 -5 -5 -10 -11 -10 -5 0 -7 5 -4 10 3 6 8 10 11 10
2 0 4 -4 4 -10z m590 0 c0 -5 -4 -10 -10 -10 -5 0 -10 5 -10 10 0 6 5 10 10
10 6 0 10 -4 10 -10z m-40 -20 c0 -5 -5 -10 -11 -10 -5 0 -7 5 -4 10 3 6 8 10
11 10 2 0 4 -4 4 -10z m-250 -25 c0 -9 -6 -12 -15 -9 -8 4 -12 10 -9 15 8 14
24 10 24 -6z m-42 -18 c2 -9 -3 -17 -10 -17 -8 0 -14 9 -15 21 -2 24 20 20 25
-4z m286 8 c-6 -16 -24 -21 -24 -7 0 11 11 22 21 22 5 0 6 -7 3 -15z m-48 -7
c4 4 3 0 -4 -9 -11 -14 -8 -19 20 -32 18 -8 40 -17 48 -20 11 -4 10 -7 -7 -12
-14 -5 -20 -13 -17 -23 3 -10 0 -8 -8 4 -7 12 -18 19 -25 17 -13 -5 -27 18
-37 61 -6 25 -5 28 7 18 8 -7 18 -8 23 -4z m-404 -19 c4 14 11 20 18 16 9 -5
6 -14 -9 -28 -24 -25 -46 -12 -34 19 6 17 8 17 13 -6 l6 -25 6 24z m458 -15
c0 -8 -4 -12 -10 -9 -5 3 -10 10 -10 16 0 5 5 9 10 9 6 0 10 -7 10 -16z m-90
-14 c0 -5 -5 -10 -11 -10 -5 0 -7 5 -4 10 3 6 8 10 11 10 2 0 4 -4 4 -10z
m-65 -20 c3 -6 -1 -7 -9 -4 -18 7 -21 14 -7 14 6 0 13 -4 16 -10z m-475 -75
c0 -8 -4 -15 -10 -15 -5 0 -7 7 -4 15 4 8 8 15 10 15 2 0 4 -7 4 -15z m-721
-51 c10 -9 16 -43 19 -99 6 -104 -7 -125 -73 -125 -63 0 -77 21 -76 115 0 60
4 82 18 98 34 38 80 42 112 11z m513 -186 l4 -33 11 27 c13 30 33 46 33 26 0
-15 -28 -59 -44 -70 -8 -5 -8 -8 -1 -8 7 0 9 -15 7 -35 -3 -21 0 -35 7 -35 6
0 11 -7 11 -15 0 -8 4 -15 9 -15 5 0 14 7 21 15 17 20 36 19 52 -3 13 -19 50
-32 104 -37 17 -2 45 -12 64 -24 18 -11 37 -18 41 -15 4 2 7 -4 6 -15 -1 -15
-5 -17 -13 -10 -9 7 -19 7 -32 0 -11 -6 -23 -7 -27 -3 -4 4 -5 -3 -2 -15 3
-13 1 -23 -3 -23 -5 0 -20 -11 -34 -25 -15 -15 -36 -25 -53 -25 -22 0 -25 2
-13 10 11 8 8 9 -12 4 -17 -4 -28 -2 -28 4 0 13 -41 11 -56 -3 -5 -5 -13 -18
-17 -27 -3 -10 -11 -18 -16 -18 -5 0 -7 -17 -5 -37 5 -41 -7 -70 -25 -59 -8 5
-8 13 -1 27 7 13 7 19 0 19 -5 0 -9 8 -8 18 2 9 -3 63 -11 120 -13 97 -12 151
5 265 8 54 21 62 26 15z m911 -55 c-7 -3 -13 -11 -13 -19 0 -19 -16 -18 -24 2
-10 27 -7 31 22 26 15 -3 21 -7 15 -9z m-1429 -96 c19 -19 24 -38 29 -110 5
-56 3 -95 -4 -108 -22 -43 -120 -54 -140 -17 -14 25 -13 146 1 199 16 57 74
76 114 36z m1386 13 c0 -5 -5 -10 -11 -10 -5 0 -7 5 -4 10 3 6 8 10 11 10 2 0
4 -4 4 -10z m-514 -32 c-9 -5 -22 -7 -29 -4 -7 2 -4 5 6 5 9 1 17 6 17 12 0 5
5 7 11 3 8 -5 6 -10 -5 -16z m294 14 c0 -5 -7 -9 -15 -9 -8 0 -12 4 -9 9 3 4
9 8 15 8 5 0 9 -4 9 -8z m-400 -6 c0 -3 -4 -8 -10 -11 -5 -3 -10 -1 -10 4 0 6
5 11 10 11 6 0 10 -2 10 -4z m60 -16 c0 -5 -5 -10 -11 -10 -5 0 -7 5 -4 10 3
6 8 10 11 10 2 0 4 -4 4 -10z m-393 -32 c-3 -7 -5 -2 -5 12 0 14 2 19 5 13 2
-7 2 -19 0 -25z m798 2 c-3 -5 -12 -10 -18 -10 -7 0 -6 4 3 10 19 12 23 12 15
0z m-40 -10 c3 -5 1 -10 -4 -10 -6 0 -11 5 -11 10 0 6 2 10 4 10 3 0 8 -4 11
-10z m-742 -52 c6 -3 12 -35 14 -70 3 -59 2 -62 -13 -43 -11 14 -14 33 -11 63
2 23 1 42 -4 42 -5 0 -9 10 -8 23 0 15 2 17 6 7 3 -8 11 -18 16 -22z m1150
-15 c-15 -5 -38 -72 -28 -81 4 -4 10 -1 12 6 5 13 23 17 23 4 0 -14 -40 -52
-56 -52 -10 0 -13 7 -9 23 3 12 7 33 9 47 4 35 16 61 26 55 5 -3 12 0 15 6 4
5 10 7 14 3 3 -4 1 -9 -6 -11z m-1243 -98 c0 -8 -4 -15 -10 -15 -5 0 -7 7 -4
15 4 8 8 15 10 15 2 0 4 -7 4 -15z m167 -132 c-11 -11 -17 -13 -17 -5 0 7 5
12 11 12 6 0 8 7 4 18 -5 14 -4 15 6 4 11 -10 10 -15 -4 -29z m-162 7 c7 6 16
7 19 2 9 -15 -33 -52 -65 -59 -46 -9 -28 -28 26 -28 28 0 50 -5 52 -12 6 -18
-15 -53 -32 -53 -8 0 -15 -5 -15 -10 0 -7 6 -7 19 0 26 13 27 13 27 -10 0 -11
-3 -20 -6 -20 -3 0 -6 -9 -7 -20 -1 -17 4 -20 34 -20 30 0 34 -2 23 -15 -15
-18 -7 -19 23 -3 21 11 21 11 4 -13 -9 -13 -22 -34 -29 -46 -6 -13 -19 -23
-30 -23 -10 0 -18 -4 -18 -10 0 -5 6 -10 14 -10 8 0 17 -15 20 -34 5 -26 15
-38 40 -50 18 -9 39 -23 46 -31 8 -9 27 -23 44 -32 l30 -16 -16 25 -16 25 34
-16 c18 -9 33 -18 34 -21 0 -9 -134 -68 -190 -84 -30 -8 -95 -25 -144 -36 -49
-11 -101 -27 -117 -35 -15 -8 -43 -15 -61 -14 -31 0 -31 1 -10 10 21 8 22 10
8 25 -20 19 -20 23 0 62 16 33 12 52 -10 52 -7 0 -27 13 -46 30 -18 16 -38 31
-44 34 -7 3 -7 7 2 14 8 5 12 13 10 18 -1 5 15 13 37 18 89 19 114 38 83 63
-15 12 -135 0 -150 -15 -12 -12 -98 16 -111 35 -4 7 -14 10 -22 7 -8 -4 -15
-1 -15 5 0 6 5 11 11 11 5 0 7 4 4 10 -3 5 0 7 8 4 8 -3 18 -1 21 5 4 6 36 8
82 5 l75 -5 59 46 c38 29 60 54 60 66 0 33 18 58 38 52 11 -2 30 7 48 25 l31
29 -38 1 c-30 2 -37 -1 -33 -13 4 -9 0 -15 -10 -15 -9 0 -16 7 -16 16 0 8 -4
12 -10 9 -6 -3 -7 1 -3 10 3 11 8 13 12 6 7 -10 64 12 94 37 15 13 71 19 75 9
2 -4 10 -3 17 3z m1417 -46 c-19 -14 -32 -9 -32 12 0 10 -6 13 -19 9 -11 -3
-21 0 -24 9 -9 24 2 24 48 3 39 -18 42 -22 27 -33z m-1232 1 c7 -8 8 -15 2
-15 -5 0 -15 7 -22 15 -7 8 -8 15 -2 15 5 0 15 -7 22 -15z m610 -3 c0 -15 -45
-49 -70 -52 -28 -4 -145 -4 -190 1 -24 2 -30 7 -30 27 0 18 4 23 17 18 36 -14
111 -15 168 -2 73 16 105 19 105 8z m-581 -87 c0 -5 -6 -1 -14 9 -8 11 -15 24
-15 30 0 5 7 1 15 -10 8 -10 14 -23 14 -29z m1205 29 c12 -5 13 -10 4 -24 -9
-14 -16 -16 -31 -9 -14 8 -16 13 -6 25 13 16 12 16 33 8z m82 -26 c4 -6 1 -21
-6 -34 -17 -32 -50 -15 -50 25 0 25 3 28 25 23 14 -2 28 -9 31 -14z m-666 -14
c0 -14 -4 -23 -10 -19 -5 3 -10 2 -10 -2 0 -16 -41 -33 -93 -38 -44 -4 -48 -3
-27 6 14 6 36 16 50 22 14 7 36 22 49 34 31 30 41 29 41 -3z m-250 -14 c0 -5
-5 -10 -11 -10 -5 0 -7 5 -4 10 3 6 8 10 11 10 2 0 4 -4 4 -10z m473 -25 c-3
-9 -8 -14 -10 -11 -3 3 -2 9 2 15 9 16 15 13 8 -4z m392 -5 c3 -5 1 -10 -4
-10 -6 0 -11 5 -11 10 0 6 2 10 4 10 3 0 8 -4 11 -10z m-368 -72 c-3 -7 -5 -2
-5 12 0 14 2 19 5 13 2 -7 2 -19 0 -25z m530 -35 c10 -9 5 -18 -22 -42 -35
-30 -55 -39 -105 -44 -19 -1 -24 2 -22 16 2 9 -2 17 -8 17 -15 0 -8 42 8 48 8
2 10 -2 5 -15 -6 -16 -5 -17 12 -3 10 8 31 28 47 44 31 31 28 32 85 -21z
m-523 -15 c7 -27 7 -88 -1 -70 -2 6 -9 12 -14 12 -13 0 -11 -44 3 -58 6 -6 11
-32 9 -56 -2 -54 49 -156 79 -156 15 0 17 -5 11 -33 -15 -65 -48 -102 -118
-133 -24 -10 -43 -21 -43 -25 0 -7 -59 -24 -72 -21 -4 1 -28 -7 -53 -18 -69
-30 -160 -25 -134 6 9 11 8 15 -5 20 -9 3 -16 10 -16 16 0 5 5 6 11 2 7 -4 26
-8 43 -10 29 -3 30 -2 12 11 -10 7 -16 17 -13 22 3 5 -6 13 -19 20 -13 6 -24
7 -24 2 0 -4 -6 -6 -14 -3 -9 3 -17 -3 -21 -15 -5 -17 -10 -19 -26 -11 -11 6
-23 9 -27 7 -4 -3 -16 -1 -27 4 -18 7 -18 8 -2 8 16 1 17 3 3 16 -18 18 -37
20 -34 3 2 -8 -7 -13 -22 -13 -19 0 -24 5 -22 20 2 16 1 17 -7 5 -5 -8 -7 -18
-5 -22 3 -4 -2 -8 -10 -8 -9 0 -16 5 -16 10 0 6 -7 10 -16 10 -8 0 -13 4 -10
9 3 4 -3 16 -14 26 -11 10 -20 23 -20 29 0 5 -15 25 -32 44 -25 25 -28 31 -13
26 11 -4 25 -13 31 -20 6 -8 26 -21 45 -30 19 -8 46 -22 61 -30 32 -18 149
-30 175 -19 10 5 24 7 31 6 6 -1 12 5 12 13 0 23 28 45 49 39 18 -5 43 23 40
44 -3 20 2 32 16 35 11 2 12 7 4 18 -8 11 -12 12 -16 2 -2 -6 -9 -10 -14 -7
-5 4 -6 -1 -3 -9 3 -9 1 -16 -5 -16 -6 0 -11 5 -11 11 0 5 -4 7 -10 4 -14 -8
-1 26 18 48 13 14 13 17 1 17 -9 0 -10 3 -3 8 6 4 16 17 23 30 9 16 18 21 32
17 13 -5 17 -2 14 7 -7 18 141 178 165 178 10 0 20 -10 24 -22z m300 -13 c10
-19 14 -40 10 -47 -5 -7 -10 -4 -15 10 -5 13 -14 20 -23 16 -8 -3 -17 0 -22 7
-5 9 -2 10 9 6 14 -5 16 -2 11 18 -9 37 11 30 30 -10z m-1144 -20 c-6 -8 -9
-19 -6 -24 4 -5 1 -13 -5 -17 -8 -4 -9 -3 -5 4 4 7 2 12 -4 12 -8 0 -8 6 0 20
6 11 16 20 22 20 7 0 6 -5 -2 -15z m460 5 c0 -5 -4 -10 -10 -10 -5 0 -10 5
-10 10 0 6 5 10 10 10 6 0 10 -4 10 -10z m-30 -10 c0 -13 -11 -13 -30 0 -12 8
-11 10 8 10 12 0 22 -4 22 -10z m627 -42 c-3 -8 -6 -5 -6 6 -1 11 2 17 5 13 3
-3 4 -12 1 -19z m-1044 -38 c3 -13 0 -20 -8 -20 -17 0 -28 17 -20 30 10 16 22
12 28 -10z m14 -52 c-3 -8 -6 -5 -6 6 -1 11 2 17 5 13 3 -3 4 -12 1 -19z
m1013 -27 c0 -12 -20 -25 -27 -18 -7 7 6 27 18 27 5 0 9 -4 9 -9z m-1017 -21
c-4 -15 0 -20 14 -20 17 0 20 -6 19 -37 -1 -21 4 -47 11 -59 8 -12 11 -28 7
-37 -7 -20 14 -60 27 -51 6 3 5 -3 -2 -14 -12 -19 -10 -24 14 -45 18 -15 26
-29 22 -39 -4 -10 2 -22 17 -32 12 -9 18 -16 13 -16 -6 0 -35 17 -64 38 -62
42 -101 104 -125 196 -17 64 -10 95 26 120 28 20 27 20 21 -4z m507 -34 c0 -3
-4 -8 -10 -11 -5 -3 -10 -1 -10 4 0 6 5 11 10 11 6 0 10 -2 10 -4z m-1117 -53
c-12 -30 -83 -37 -83 -8 0 26 54 49 77 32 6 -4 9 -15 6 -24z m1171 -32 c-10
-10 -22 -17 -26 -14 -11 6 14 32 31 33 11 0 9 -5 -5 -19z m-339 -11 c3 -6 -1
-7 -9 -4 -18 7 -21 14 -7 14 6 0 13 -4 16 -10z m56 -169 c-7 -5 -3 -15 14 -29
27 -23 31 -37 15 -47 -6 -4 -8 -10 -5 -14 2 -5 -7 -6 -20 -3 -14 2 -23 8 -20
12 3 4 -2 10 -10 14 -19 7 -20 36 0 36 9 0 12 6 9 15 -4 8 0 22 7 31 10 12 14
13 17 4 3 -7 -1 -15 -7 -19z m79 -17 c0 -18 -24 -18 -39 0 -10 11 -8 15 6 18
23 6 33 0 33 -18z m-170 -44 c8 -5 11 -10 5 -10 -5 0 -17 5 -25 10 -8 5 -10
10 -5 10 6 0 17 -5 25 -10z"/>
<path d="M1200 1881 c0 -6 5 -13 10 -16 6 -3 10 -12 10 -18 0 -7 -4 -6 -11 3
-8 11 -12 12 -16 2 -2 -6 -9 -10 -14 -6 -5 3 -9 1 -9 -4 0 -11 55 -11 65 0 4
3 0 15 -7 27 -13 22 -28 28 -28 12z"/>
<path d="M1070 1716 c0 -9 5 -16 10 -16 6 0 10 4 10 9 0 6 -4 13 -10 16 -5 3
-10 -1 -10 -9z"/>
<path d="M1330 1705 c0 -8 2 -15 4 -15 2 0 6 7 10 15 3 8 1 15 -4 15 -6 0 -10
-7 -10 -15z"/>
<path d="M1010 1699 c0 -5 5 -7 10 -4 6 3 10 8 10 11 0 2 -4 4 -10 4 -5 0 -10
-5 -10 -11z"/>
<path d="M1225 1680 c3 -5 10 -10 16 -10 5 0 9 5 9 10 0 6 -7 10 -16 10 -8 0
-12 -4 -9 -10z"/>
<path d="M1370 1673 c0 -12 7 -14 29 -10 15 3 33 1 39 -5 14 -14 24 -7 14 8
-4 6 -24 14 -44 17 -30 5 -38 3 -38 -10z"/>
<path d="M1290 1660 c0 -5 5 -10 10 -10 6 0 10 5 10 10 0 6 -4 10 -10 10 -5 0
-10 -4 -10 -10z"/>
<path d="M1583 1639 c-2 -23 2 -26 25 -26 15 0 22 2 15 4 -8 3 -9 12 -4 26 7
18 5 22 -13 22 -16 0 -22 -7 -23 -26z"/>
<path d="M1681 1244 c0 -11 3 -14 6 -6 3 7 2 16 -1 19 -3 4 -6 -2 -5 -13z"/>
<path d="M1643 1230 c6 -10 15 -16 20 -13 13 8 3 26 -16 29 -13 2 -14 -1 -4
-16z"/>
<path d="M1530 1190 c-12 -7 -12 -10 3 -16 21 -8 29 -3 19 13 -5 8 -13 9 -22
3z"/>
<path d="M772 1263 c-4 -34 -1 -87 4 -93 3 -3 14 5 24 17 9 12 29 25 44 29 46
11 31 22 -36 25 -19 0 -36 19 -19 19 6 0 11 5 11 10 0 18 -27 11 -28 -7z"/>
<path d="M460 546 c0 -8 5 -18 10 -21 6 -3 10 3 10 14 0 12 -4 21 -10 21 -5 0
-10 -6 -10 -14z"/>
<path d="M1661 604 c0 -11 3 -14 6 -6 3 7 2 16 -1 19 -3 4 -6 -2 -5 -13z"/>
<path d="M1560 538 c0 -18 18 -34 28 -24 3 4 -2 14 -11 23 -16 16 -17 16 -17
1z"/>
<path d="M1500 429 c0 -5 5 -7 10 -4 6 3 10 8 10 11 0 2 -4 4 -10 4 -5 0 -10
-5 -10 -11z"/>
<path d="M1541 414 c0 -11 3 -14 6 -6 3 7 2 16 -1 19 -3 4 -6 -2 -5 -13z"/>
<path d="M1480 395 c0 -8 4 -15 10 -15 5 0 7 7 4 15 -4 8 -8 15 -10 15 -2 0
-4 -7 -4 -15z"/>
<path d="M1430 180 c-9 -6 -10 -10 -3 -10 6 0 15 5 18 10 8 12 4 12 -15 0z"/>
<path d="M1265 170 c3 -5 8 -10 11 -10 2 0 4 5 4 10 0 6 -5 10 -11 10 -5 0 -7
-4 -4 -10z"/>
<path d="M1423 140 c6 -8 12 -16 12 -17 0 -1 6 7 13 17 11 18 9 20 -12 18 -21
-2 -23 -5 -13 -18z"/>
<path d="M1485 90 c-3 -5 -2 -10 4 -10 5 0 13 5 16 10 3 6 2 10 -4 10 -5 0
-13 -4 -16 -10z"/>
<path d="M1110 60 c0 -5 5 -10 11 -10 5 0 7 5 4 10 -3 6 -8 10 -11 10 -2 0 -4
-4 -4 -10z"/>
<path d="M2445 472 c-48 -10 -86 -36 -100 -69 -10 -23 -20 -33 -29 -30 -8 3
-17 -1 -20 -9 -7 -18 34 -45 77 -51 36 -5 38 -5 90 3 l37 6 0 73 c0 77 -7 87
-55 77z"/>
<path d="M2240 429 c0 -22 13 -25 29 -5 9 11 7 15 -9 19 -15 4 -20 0 -20 -14z"/>
<path d="M2270 381 c-8 -6 -19 -7 -25 -4 -5 3 -4 0 3 -8 10 -11 15 -10 29 4
19 19 16 22 -7 8z"/>
<path d="M1 234 c0 -11 3 -14 6 -6 3 7 2 16 -1 19 -3 4 -6 -2 -5 -13z"/>
</g>
</svg>
